<?xml version="1.0" encoding="utf-8"?>
<!-- Generator: Adobe Illustrator 24.2.1, SVG Export Plug-In . SVG Version: 6.00 Build 0)  -->
<svg version="1.1" xmlns="http://www.w3.org/2000/svg" xmlns:xlink="http://www.w3.org/1999/xlink" x="0px" y="0px"
	 viewBox="0 0 400 400" style="enable-background:new 0 0 400 400;" xml:space="preserve">
<style type="text/css">
	.st0{display:none;}
	.st1{display:inline;}
	.st2{fill:#26FF00;}
	.st3{fill:#537D91;}
	.st4{fill-rule:evenodd;clip-rule:evenodd;fill:#537D91;}
	.st5{fill:#202A5A;}
	.st6{fill:#4D7889;}
	.st7{fill:#325E6B;}
	.st8{fill:#4A7789;}
	.st9{fill:#3697AD;}
	.st10{fill:#5D8DA0;}
	.st11{fill:#F0F0F2;}
	.st12{fill:#F77754;}
	.st13{fill:#010440;}
	.st14{fill:#FFFFFF;}
	.st15{fill:#A4D1C8;}
</style>
<g id="Capa_1" class="st0">
	<g class="st1">
		<path class="st2" d="M394,6v388H6V6H394 M395,5H5v390h390V5L395,5z"/>
	</g>
</g>
<g id="Capa_2">
	<g>
		<path class="st3" d="M313.4,319.18c-3.52-4.97-6.49-8.92-9.19-13.06c-1.36-2.09-3-2.66-5.38-2.63
			c-9.32,0.12-18.65-0.08-27.96,0.12c-3.45,0.07-4.94-0.59-3.8-4.38c1.04-3.49,1.6-7.12,2.42-10.68c1.85-8.07,3.13-9.09,11.57-9.12
			c10.15-0.04,20.31-0.01,30.46-0.01c12.2,0,12.02-0.03,14.51-12.33c0.71-3.51-0.36-3.83-3.28-3.81
			c-14.48,0.1-28.96,0.04-43.45,0.05c-15.65,0.01-23.22,6.25-26.39,21.48c-4.51,21.64-9.12,43.26-13.72,64.88
			c-1.47,6.91-1.52,6.9,5.29,6.9c2.16,0,4.35-0.21,6.49,0.04c3.16,0.37,4.32-0.95,4.9-3.98c1.83-9.63,4.09-19.18,5.91-28.82
			c0.68-3.59,2.17-4.79,5.91-4.73C282.47,319.31,297.26,319.18,313.4,319.18z"/>
		<path class="st3" d="M347.77,318.31c5.76-5.52,11.14-11.44,16.65-17.23c3.95-4.15,7.85-8.34,12.59-13.37
			c-6.98,0-12.74,0.13-18.5-0.06c-2.77-0.09-4.64,0.9-6.47,2.89c-5.48,5.98-11.14,11.79-16.99,17.94c-1.94-2.74-3.7-5.14-5.39-7.6
			c-9.57-13.92-9.57-13.93-27.04-12.99c-0.06,2.22,1.38,3.33,2.27,4.64c5.24,7.7,10.37,15.49,15.95,22.94
			c2.55,3.4,2.7,5.58-0.48,8.63c-6,5.75-11.61,11.92-17.35,17.93c-4.3,4.5-8.57,9.04-13.75,14.53c6.93,0,12.52-0.14,18.1,0.06
			c2.91,0.11,4.97-0.77,6.94-2.93c5.26-5.78,10.9-11.23,16.06-17.09c2.45-2.79,3.49-2.25,5.27,0.53c3.58,5.6,7.48,11,11.31,16.44
			c0.82,1.16,1.26,2.92,3.09,2.94c5.69,0.05,11.39,0.02,17.94,0.02c-7.4-10.75-14.03-20.69-21.03-30.37
			C344.59,322.9,344.96,321,347.77,318.31z"/>
		<path class="st3" d="M84.39,287.27c-11.1-2.28-21.82-0.25-32.23,3.85c-4.8,1.89-1.21,5.08-1,7.57c0.27,3.21,2.66,2.07,4.5,1.46
			c6.07-2.02,12.28-2.89,18.67-2.62c2.37,0.1,4.63,0.55,6.7,1.72c4.01,2.25,6.67,9.36,4.83,14.17c-1.49,3.9-5.2,1.68-7.85,1.87
			c-7.54,0.53-14.89,1.59-21.59,5.36c-8.11,4.57-11.95,13.47-10.01,23.04c1.81,8.95,6.89,13.37,17.07,14.61
			c7.6,0.93,14.49-1.1,20.73-5.47c2.32-1.62,3.74-2.61,4.79,1.63c1.19,4.82,5.87,1.74,8.93,2.29c3.04,0.55,2.79-2.04,2.79-4.03
			c0.01-7.82,0.01-15.65,0.01-23.47c0.01,0,0.03,0,0.04,0c0-7.32,0.08-14.65-0.02-21.97C100.6,296.06,95.42,289.54,84.39,287.27z
			 M83.42,342.88c-4.76,3.05-9.62,5.48-15.43,4.29c-4.19-0.87-6.63-3.7-7.17-7.96c-0.63-5,0.41-9.36,5.38-11.8
			c5.57-2.73,11.56-2.77,17.58-2.59c1.74,0.05,2.28,1.08,2.29,2.6c0.01,1.99,0,3.99,0,6.83C85.73,336.69,87.28,340.41,83.42,342.88z
			"/>
		<path class="st3" d="M158.28,287.51c-3.97-0.04-5.12,1.49-5.54,5.07c-1.18,10.1-3.54,19.98-6.34,29.73
			c-1.63,5.66-2.76,11.56-6.02,17.33c-0.62-1.39-1.15-2.2-1.35-3.09c-3.05-13.14-7.67-25.82-11.56-38.71
			c-3.21-10.64-3.4-10.41-14.56-10.32c-3.97,0.04-4.32,1.28-3.26,4.66c5.54,17.61,10.86,35.28,16.37,52.9
			c3.7,11.83,3.79,11.58,16.28,11.89c4.46,0.11,6.42-1.58,8.04-5.46c7.19-17.24,12.83-34.94,16.66-53.23
			C169.28,287.41,169.3,287.61,158.28,287.51z"/>
		<path class="st3" d="M26.42,263.1c-4.31-0.17-5.69,1.02-5.66,5.51c0.15,26.64-0.08,53.27-0.05,79.91
			c0.01,9.48-3.14,17.2-11.12,22.66c-3.91,1.26-4.24,3.09-0.89,5.53v0c0,0,0,0,0,0c4.88,5.85,4.82,5.74,11.2,2.08
			c12.23-7.01,16.38-18.02,16.32-31.44c-0.11-24.81,0.05-49.62-0.06-74.42C36.11,261.66,37.92,263.55,26.42,263.1z"/>
		<path class="st3" d="M126.63,230.63c11.27,2.28,22.69,3.5,34.13,4.42c31.01,2.49,61.88,1.84,92.41-4.72
			c7.13-1.53,14.32-3.38,20.47-7.61c4.32-2.97,4.23-5.18,0.08-8.23c0.47,3.53-1.3,5.58-4.38,6.92c-3.53,1.53-7.21,2.52-10.97,3.23
			c-25.97,4.91-52.23,5.53-78.53,4.94c-14.46-0.32-28.92-1.15-42.89-5.51c-1.52-0.47-3.66-0.72-3.89-2.65
			c-0.26-2.22,1.91-3.02,3.51-3.66c4.73-1.86,9.55-3.48,14.34-5.2c-1.44-1.84-3.4-1-5.09-0.81c-7.34,0.81-14.38,2.84-20.9,6.31
			c-3.15,1.68-7.48,3.36-6.79,7.62C118.79,229.66,123.27,229.95,126.63,230.63z"/>
		<path class="st3" d="M165.02,197.87c-4.88,2.8-5.01,6.4-0.32,9.53c1.64,1.09,3.5,1.92,5.35,2.63c6.74,2.58,13.81,3.55,20.96,4
			c16.31,1.04,32.07-1.28,47.1-7.48c-7.5-6.52-15.72-7.19-24.46-4.77c-0.48,0.13-0.97,0.22-1.47,0.29
			c-12.28,1.64-24.54,1.06-36.73-0.78c-2.82-0.42-6.48-0.97-4.38-6.13C168.63,196.24,166.73,196.89,165.02,197.87z"/>
		<path class="st3" d="M140.32,159.95c2.04,0.67,4.12,1.35,6.23,1.7c27.01,4.49,53.99,3.3,80.95-0.58
			c7.97-1.15,15.75-2.8,22.87-8.64c-15.54,2.58-30.37,4.4-45.31,5.2c-14.45,0.77-28.92,1.41-43.33-0.29
			c-2.91-0.34-7.62,0.12-8.02-3.32c-0.34-2.93,4.17-3.71,6.88-4.75c4.74-1.81,9.62-3.28,15.77-5.34
			c-13.08,0.22-27.3,3.76-36.37,8.78c-1.57,0.87-3.54,1.59-3.45,3.83C136.62,158.8,138.59,159.38,140.32,159.95z"/>
		<path class="st3" d="M224.32,177.24c-17.55,3.56-35.37,3.53-53.15,1.36c-6.68-0.81-7.9-2.48-5.6-8c-0.79,0.2-1.44,0.27-2,0.53
			c-3.64,1.75-8.97,2.57-8.73,7.57c0.24,4.97,5.56,5.61,9.4,6.77c8.17,2.48,16.65,3.06,25.15,3.26c17.7,0.43,35.07-1.66,52.52-6.6
			C236.55,176.79,231.19,175.84,224.32,177.24z"/>
		<path class="st3" d="M211.52,126.05c4.14,4.93,6.34,10.05,5.03,16.45c-1.55,2.55-3.1,5.09-5.27,8.67c3.69-1.69,5.98-3.1,7.76-5.29
			c10.4-8.1,14.14-19.38,4.2-30.28c-0.99-1.09-1.68-2.46-2.5-3.71c-6.66-10.22-6.12-16.54,2.73-25.05
			c4.51-4.34,9.55-8.13,14.35-12.17c4.54-1.56,8.05-4.66,11.7-7.75c-5.35,0.39-10.21,2.04-14.77,4.64
			c-7.43,2.68-14.2,6.64-20.07,11.81C199.68,96.58,198.63,110.7,211.52,126.05z"/>
		<path class="st3" d="M263.69,177.86c-4.03,2.85-8.26,5.41-12.4,8.1c10.3-1.83,19.66-5.42,27.5-12.24c3.18-2.76,5.75-5.97,7.21-10
			c2.57-7.11,0.07-14.49-6.39-18.73c-6.94-4.56-17.59-4.42-22.94,0.58c1.45-0.12,2.59-0.11,3.69-0.31c6-1.07,10.91,0.9,14.44,5.7
			c3.42,4.64,2.96,9.69,0.35,14.6C272.44,170.69,268.34,174.58,263.69,177.86z"/>
		<path class="st3" d="M393.02,288.33c-1.41-1.72-1.79,0.48-2.63,1.33c-0.93,0.94-1.16-0.41-1.52-0.94
			c-0.68-1.04-1.79-1.47-2.13-0.2c-0.46,1.69-0.53,3.65-0.12,5.34c0.3,1.24,2.21-0.61,3.44,1.29c-0.11-3.75,3.21,1.02,3.39-2.04
			C393.56,291.5,393.87,289.37,393.02,288.33z"/>
		<path class="st3" d="M380.77,288.4c2.49,1.39,1.24,4.22,3.06,7.2c0.64-3.22,1.49-5.47,1.29-7.62
			C385.05,287.2,382.55,287.3,380.77,288.4z"/>
		<path class="st3" d="M150.55,241.17c0.85,0.6,1.71,1.09,2.64,1.31c3.24,0.77,6.46,1.66,9.75,2.11c28.7,3.97,57.43,3.5,86.09-0.26
			c10.39-1.36,20.71-3.47,30.04-8.66c3.62-2.02,6.88-4.49,7.45-7.91C242.77,246.68,196.76,244.59,150.55,241.17z"/>
		<path class="st3" d="M228.89,306.16c-0.05-9.97-5.53-16.53-15.31-18.7c-8.68-1.92-17.21-0.81-25.66,1.3
			c-9.32,2.32-9.3,2.38-8.06,11.68c0,0,0.02,0.04,0.02,0.04c0,0,0,0,0,0c2.59,0.48,4.91-0.67,7.29-1.33
			c5.68-1.58,11.43-2.07,17.29-1.61c3.92,0.31,7.03,1.99,8.95,5.48c1.96,3.55,2.2,7.73,0.88,11.13c-1.15,2.96-5.04,1.13-7.69,1.3
			c-7.87,0.52-15.58,1.55-22.42,5.85c-7.7,4.84-11.1,13.68-9.01,23.06c1.81,8.18,6.5,12.06,16.27,13.64
			c8.23,1.33,15.46-1.13,22.05-5.8c2.17-1.54,3.39-1.82,3.91,1.22c1.05,6.12,5.78,2.53,8.78,3.09c3.53,0.66,2.71-2.51,2.72-4.45
			C228.94,336.77,228.97,321.46,228.89,306.16z M196.12,347.05c-4.71-1.15-6.68-4.86-7-9.27c-0.35-4.92,1.85-8.79,6.47-10.79
			c5.31-2.3,10.99-2.33,16.67-2.11c1.67,0.07,2.39,0.89,2.38,2.5c-0.01,2,0,3.99,0,6.31c-0.4,2.96,1.21,6.64-2.65,9.15
			C207.1,346.02,202.1,348.5,196.12,347.05z"/>
		<path class="st3" d="M195.62,137.04C195.62,137.04,195.62,137.04,195.62,137.04c2.08,2.15,4.15,4.3,6.23,6.45c0,0,0,0,0,0
			c0.95-0.23,0.63-1.01,0.7-1.62c0,0,0,0,0,0c-1.91-2.77-3.83-5.55-5.74-8.32c-0.98-1.52-1.91-3.09-2.96-4.56
			c-6.1-8.49-11-17.35-8.96-28.41c0,0,0,0,0,0c0,0,0,0,0,0c0.21-0.99-0.16-2.16,0.87-2.91c4.31-6.37,9.02-12.4,15.02-17.3
			c2.13-1.75,4.52-3.22,5.99-5.66v0c8.05-5.06,13.87-12.27,18.79-20.18c7.22-11.6,8.83-23.54,1.05-35.67
			c-0.29-0.04-0.57-0.1-0.86-0.18c2.4,13.02-0.36,24.69-9.42,34.52c-3.69,4-7.8,7.61-11.72,11.4c-0.32,0.23-0.64,0.46-0.96,0.69
			c0,0,0,0,0,0c-8.92,6.82-18.39,13.02-25.19,22.24c0,0,0,0,0,0c0,0,0,0,0,0c-7.12,7.43-8.15,15.93-2.94,25.86
			C180.45,122.74,187.95,129.97,195.62,137.04z"/>
	</g>
</g>
</svg>
